<svg version="1.1" xmlns="http://www.w3.org/2000/svg" xmlns:xlink="http://www.w3.org/1999/xlink" x="0px" y="0px"
	 viewBox="0 0 100 100" style="enable-background:new 0 0 100 100;" xml:space="preserve">
<g id="Vrstva_88">
	<g>
		<g>
			<path d="M13.364,75.925c-0.828,0-1.5-0.672-1.5-1.5c0-7.23,5.439-10.881,9.529-12.998c3.951-2.045,6.53-2.724,8.805-3.321
				c2.479-0.652,4.437-1.167,7.559-3.388c0.674-0.48,1.61-0.322,2.092,0.354c0.479,0.675,0.322,1.611-0.353,2.092
				c-3.567,2.537-5.98,3.172-8.533,3.844c-2.125,0.559-4.533,1.191-8.19,3.084c-5.47,2.83-7.908,6.018-7.908,10.334
				C14.864,75.253,14.193,75.925,13.364,75.925z"/>
		</g>
		<g>
			<path d="M86.626,75.925c-0.828,0-1.5-0.672-1.5-1.5c0-4.316-2.438-7.504-7.908-10.334c-3.656-1.893-6.064-2.525-8.189-3.084
				c-2.554-0.672-4.966-1.307-8.533-3.844c-0.676-0.481-0.833-1.417-0.354-2.092c0.481-0.676,1.418-0.834,2.092-0.354
				c3.122,2.221,5.079,2.735,7.559,3.388c2.274,0.598,4.853,1.276,8.805,3.321c4.091,2.117,9.529,5.767,9.529,12.998
				C88.126,75.253,87.454,75.925,86.626,75.925z"/>
		</g>
		<g>
			<path d="M49.391,52.875c-6.993,0-9.555-5.164-12.032-10.157c-0.346-0.696-0.694-1.399-1.06-2.098
				c-0.182-0.138-0.623-0.376-0.898-0.524c-0.964-0.521-1.874-1.013-2.229-1.905c-0.976-2.455-1.504-6-1.596-8.424
				c-0.041-1.085,0.776-1.541,2.26-2.369c0.203-0.114,0.484-0.271,0.719-0.408c-0.011-2.051-0.066-3.529-0.108-4.639
				c-0.055-1.442-0.087-2.312,0.034-3.078c1.024-6.456,6.04-9.73,14.909-9.73c0.828,0,1.5,0.672,1.5,1.5s-0.672,1.5-1.5,1.5
				c-9.685,0-11.456,4.109-11.946,7.2c-0.075,0.476-0.047,1.236,0.001,2.495c0.047,1.259,0.112,2.982,0.112,5.471
				c-0.003,1.05-0.804,1.497-2.259,2.309c-0.193,0.108-0.455,0.255-0.682,0.387c0.143,1.998,0.572,4.64,1.276,6.506
				c0.202,0.151,0.651,0.395,0.935,0.547c0.859,0.465,1.672,0.904,2.061,1.643c0.4,0.761,0.78,1.527,1.157,2.286
				c2.611,5.264,4.46,8.49,9.345,8.49c0.828,0,1.5,0.672,1.5,1.5S50.219,52.875,49.391,52.875z"/>
		</g>
		<g>
			<path d="M50.076,52.875c-0.828,0-1.5-0.672-1.5-1.5s0.672-1.5,1.5-1.5c4.885,0,6.733-3.227,9.345-8.49
				c0.377-0.759,0.757-1.525,1.157-2.285c0.389-0.739,1.201-1.179,2.061-1.644c0.283-0.152,0.733-0.396,0.935-0.547
				c0.704-1.866,1.134-4.508,1.276-6.506c-0.227-0.132-0.488-0.278-0.682-0.387c-1.455-0.812-2.256-1.259-2.259-2.305
				c0-2.492,0.066-4.216,0.112-5.475c0.048-1.259,0.076-2.02,0.001-2.494c-0.49-3.092-2.262-7.201-11.946-7.201
				c-0.828,0-1.5-0.672-1.5-1.5s0.672-1.5,1.5-1.5c8.869,0,13.886,3.274,14.909,9.731c0.121,0.765,0.089,1.635,0.034,3.077
				c-0.042,1.109-0.098,2.587-0.108,4.639c0.234,0.138,0.516,0.294,0.719,0.408c1.483,0.828,2.301,1.284,2.26,2.37
				c-0.092,2.423-0.62,5.968-1.595,8.423c-0.355,0.893-1.266,1.385-2.229,1.905c-0.274,0.148-0.716,0.387-0.898,0.524
				c-0.365,0.698-0.714,1.401-1.06,2.098C59.631,47.711,57.07,52.875,50.076,52.875z"/>
		</g>
		<g>
			<path d="M49.575,90.458c-13.858,0-27.08-5.187-37.231-14.605c-0.607-0.563-0.643-1.513-0.079-2.12
				c0.564-0.607,1.513-0.641,2.12-0.079c9.594,8.902,22.092,13.805,35.19,13.805c14.39,0,26.844-4.699,36.017-13.589
				c0.594-0.577,1.545-0.562,2.121,0.033c0.576,0.595,0.562,1.545-0.033,2.121C77.936,85.467,64.76,90.458,49.575,90.458z"/>
		</g>
	</g>
</g>
<script  type="text/javascript">
    <![CDATA[
         var c=window.location.search.split('color=')[1]; c=parseInt(c,16); if(!isNaN(c)){c=c.toString(16);var p=document.getElementsByTagName('path');for(var i=0,l=p.length;i<l;i++){var s=p[i].style;s.fill='#'+c;} var p2=document.getElementsByTagName('polygon');for(var i=0,l=p2.length;i<l;i++){var s=p2[i].style;s.fill='#'+c;} var p3=document.getElementsByTagName('circle');for(var i=0,l=p3.length;i<l;i++){var s=p3[i].style;s.fill='#'+c;} }
        ]]>
</script>
</svg>
