<svg viewBox="-1.000 -1.000 35.000 64.000" preserveAspectRatio="xMidYMid meet" xmlns="http://www.w3.org/2000/svg">
	<g>
		<title>Layer 1</title>
		<g id="svg_facebook">
			 <path d="M20.423,4.000 C20.661,4.000 20.798,4.010 20.798,4.010 C20.798,4.010 26.020,4.010 26.020,4.010 C26.020,4.010 25.993,10.010 25.993,10.010 C25.993,10.010 20.806,10.010 20.806,10.010 C17.950,10.010 18.017,12.447 18.017,12.447 C18.017,12.447 18.017,21.959 18.017,21.959 C18.017,21.959 28.118,21.959 28.118,21.959 C28.118,21.959 26.708,27.951 26.708,27.951 C26.708,27.951 17.983,27.951 17.983,27.951 C17.983,27.951 17.983,57.937 17.983,57.937 C17.983,57.937 11.989,57.937 11.989,57.937 C11.989,57.937 11.985,27.951 11.985,27.951 C11.985,27.951 4.022,27.951 4.022,27.951 C4.022,27.951 4.007,21.959 4.007,21.959 C4.007,21.959 11.989,21.959 11.989,21.959 C11.989,21.959 11.989,14.623 11.989,12.635 C11.989,4.506 18.741,4.000 20.423,4.000 M26.020,4.010 C26.020,4.010 26.030,4.010 26.030,4.010 M20.423,-0.000 C20.423,-0.000 20.423,-0.000 20.423,-0.000 C18.985,-0.000 16.175,0.238 13.513,1.842 C10.993,3.357 7.989,6.463 7.989,12.635 C7.989,12.635 7.989,17.959 7.989,17.959 C7.989,17.959 4.007,17.959 4.007,17.959 C2.944,17.959 1.925,18.383 1.173,19.135 C0.423,19.889 0.003,20.908 0.007,21.973 C0.007,21.973 0.022,27.965 0.022,27.965 C0.030,30.168 1.819,31.951 4.022,31.951 C4.022,31.951 7.985,31.951 7.985,31.951 C7.985,31.951 7.989,57.937 7.989,57.937 C7.989,60.146 9.780,61.937 11.989,61.937 C11.989,61.937 17.983,61.937 17.983,61.937 C20.192,61.937 21.983,60.146 21.983,57.937 C21.983,57.937 21.983,31.951 21.983,31.951 C21.983,31.951 26.708,31.951 26.708,31.951 C28.483,31.951 30.046,30.781 30.546,29.078 C30.546,29.078 31.956,23.086 31.956,23.086 C32.311,21.877 32.075,20.570 31.319,19.562 C30.565,18.553 29.378,17.959 28.118,17.959 C28.118,17.959 22.017,17.959 22.017,17.959 C22.017,17.959 22.017,14.012 22.017,14.012 C22.017,14.012 25.993,14.010 25.993,14.010 C28.194,14.010 29.983,12.230 29.993,10.027 C29.993,10.027 30.020,4.230 30.020,4.230 C30.024,4.156 30.026,4.084 30.026,4.010 C30.026,1.801 28.239,0.010 26.030,0.010 C26.030,0.010 26.020,0.010 26.020,0.010 C26.020,0.010 20.909,0.010 20.909,0.010 C20.796,0.004 20.630,-0.000 20.423,-0.000 C20.423,-0.000 20.423,-0.000 20.423,-0.000 Z" id="path-1" fill="#1b1b1b"  fill-rule="evenodd"/>
		</g>
	</g>
	<script type="text/javascript">
		<![CDATA[ var c=window.location.search.split('color=')[1]; c=parseInt(c,16); if(!isNaN(c)){c=c.toString(16);var p=document.getElementsByTagName('path');for(var i=0,l=p.length;i<l;i++){var s=p[i].style;s.fill='#'+c;}} ]]>
	</script>
</svg>