<svg version="1.1" id="Vrstva_1" xmlns="http://www.w3.org/2000/svg" xmlns:xlink="http://www.w3.org/1999/xlink" x="0px" y="0px"
	 viewBox="-1.000 -1.000 53.300 43.000" enable-background="new 0 0 51.3 41" xml:space="preserve">
<g>
	<circle fill="#231F20" cx="27.3" cy="9.6" r="2.6"/>
	<path fill="#231F20" d="M50.8,14C48.1,3.2,34.2-2.6,19.8,1.1C10.4,3.5,3.1,10.4,0,15.9c3.4-4.6,8.9-8.7,15.7-11
		C29.3,0.2,42.9,4,46.1,13.4c3.2,9.4-5.2,20.7-18.7,25.4c-4.1,1.4-8.2,2.1-12,2c4.5,0.5,9.5-0.1,14.5-1.4
		C44.3,35.7,53.6,24.8,50.8,14z"/>
	<path fill="#231F20" d="M43.6,15.3c-0.1-0.4-0.2-0.7-0.3-1.1c-0.1-0.3-0.2-0.6-0.4-1c-1.5,0.5-10,3.1-15.2,1.3
		c-5-1.7-10.1-6.3-11.3-7.4c-0.1,0-0.1,0-0.2,0.1c-0.9,0.3-1.9,0.7-2.7,1.1c1.5,0.7,6.3,3.5,7.1,9.1c0.9,6-1.4,18.2-1.8,20.6
		c0.7-0.1,1.5-0.2,2.2-0.3c0.5-2.1,3.5-14,5.6-12.1c2.1,1.8,3.3,8.1,3.5,9.2c0.6-0.3,1.2-0.6,1.8-0.9c-0.2-2.1-1.1-12.4,1.5-15.1
		C36,16.3,42,15.5,43.6,15.3z"/>
</g>
<script  type="text/javascript">
    <![CDATA[
         var c=window.location.search.split('color=')[1]; c=parseInt(c,16); if(!isNaN(c)){c=c.toString(16);var p=document.getElementsByTagName('path');for(var i=0,l=p.length;i<l;i++){var s=p[i].style;s.fill='#'+c;} var p2=document.getElementsByTagName('polygon');for(var i=0,l=p2.length;i<l;i++){var s=p2[i].style;s.fill='#'+c;} var p3=document.getElementsByTagName('circle');for(var i=0,l=p3.length;i<l;i++){var s=p3[i].style;s.fill='#'+c;} }
        ]]>
</script>
</svg>
