<svg version="1.1" xmlns="http://www.w3.org/2000/svg" xmlns:xlink="http://www.w3.org/1999/xlink" x="0px" y="0px"
	 viewBox="0 0 100 100" style="enable-background:new 0 0 100 100;" xml:space="preserve">
<g id="Vrstva_146">
	<g>
		<g>
			<g>
				<path d="M49.666,85.251c-0.287,0-0.578-0.082-0.834-0.254c-10.523-7.052-34.999-26.098-34.999-50.58
					c0-12.912,9.304-19.668,18.493-19.668c9.362,0,18.841,6.984,18.841,20.334c0,0.829-0.672,1.5-1.5,1.5
					c-0.828,0-1.5-0.671-1.5-1.5c0-5.409-1.719-9.923-4.971-13.056c-2.864-2.759-6.725-4.278-10.87-4.278
					c-7.462,0-15.493,5.216-15.493,16.668c0,23.037,23.546,41.304,33.669,48.088c0.688,0.461,0.872,1.393,0.411,2.081
					C50.624,85.018,50.149,85.251,49.666,85.251z"/>
			</g>
		</g>
		<g>
			<g>
				<path d="M50.334,85.251c-0.483,0-0.958-0.233-1.247-0.665c-0.461-0.688-0.277-1.62,0.411-2.081
					c10.123-6.784,33.669-25.051,33.669-48.088c0-5.185-1.672-9.518-4.834-12.53c-2.802-2.668-6.588-4.138-10.659-4.138
					c-7.63,0-15.841,5.424-15.841,17.334c0,0.829-0.672,1.5-1.5,1.5c-0.828,0-1.5-0.671-1.5-1.5c0-6.244,2.036-11.505,5.89-15.216
					c3.426-3.3,8.025-5.118,12.951-5.118c9.189,0,18.493,6.756,18.493,19.668c0,24.482-24.476,43.528-34.999,50.58
					C50.912,85.169,50.621,85.251,50.334,85.251z"/>
			</g>
		</g>
	</g>
</g>
<script  type="text/javascript">
    <![CDATA[
         var c=window.location.search.split('color=')[1]; c=parseInt(c,16); if(!isNaN(c)){c=c.toString(16);var p=document.getElementsByTagName('path');for(var i=0,l=p.length;i<l;i++){var s=p[i].style;s.fill='#'+c;} var p2=document.getElementsByTagName('polygon');for(var i=0,l=p2.length;i<l;i++){var s=p2[i].style;s.fill='#'+c;} var p3=document.getElementsByTagName('circle');for(var i=0,l=p3.length;i<l;i++){var s=p3[i].style;s.fill='#'+c;} }
        ]]>
</script>
</svg>
