<svg version="1.1" xmlns="http://www.w3.org/2000/svg" xmlns:xlink="http://www.w3.org/1999/xlink" x="0px" y="0px"
	 viewBox="0 0 100 100" style="enable-background:new 0 0 100 100;" xml:space="preserve">
<g id="Vrstva_24">
	<g>
		<g>
			<g>
				<path d="M83,75.5c-0.828,0-1.5-0.671-1.5-1.5V57c0-0.829,0.672-1.5,1.5-1.5c0.828,0,1.5,0.671,1.5,1.5v17
					C84.5,74.829,83.828,75.5,83,75.5z"/>
			</g>
			<g>
				<path d="M83,49.5c-0.828,0-1.5-0.671-1.5-1.5V27.5C81.5,18.92,76.579,14,68,14H32c-8.579,0-13.5,4.92-13.5,13.5V48
					c0,0.829-0.672,1.5-1.5,1.5c-0.828,0-1.5-0.671-1.5-1.5V27.5C15.5,17.322,21.822,11,32,11h36c10.178,0,16.5,6.322,16.5,16.5V48
					C84.5,48.829,83.828,49.5,83,49.5z"/>
			</g>
			<g>
				<path d="M17,75.5c-0.828,0-1.5-0.671-1.5-1.5V57c0-0.829,0.672-1.5,1.5-1.5c0.828,0,1.5,0.671,1.5,1.5v17
					C18.5,74.829,17.828,75.5,17,75.5z"/>
			</g>
			<g>
				<path d="M82.5,76h-65c-0.828,0-1.5-0.671-1.5-1.5s0.672-1.5,1.5-1.5h65c0.828,0,1.5,0.671,1.5,1.5S83.328,76,82.5,76z"/>
			</g>
			<g>
				<path d="M27,88.5c-0.828,0-1.5-0.671-1.5-1.5v-3c0-0.829,0.672-1.5,1.5-1.5c0.828,0,1.5,0.671,1.5,1.5v3
					C28.5,87.829,27.828,88.5,27,88.5z"/>
			</g>
			<g>
				<path d="M73,88.5c-0.828,0-1.5-0.671-1.5-1.5v-3c0-0.829,0.672-1.5,1.5-1.5c0.828,0,1.5,0.671,1.5,1.5v3
					C74.5,87.829,73.828,88.5,73,88.5z"/>
			</g>
			<g>
				<path d="M72.5,89h-45c-0.828,0-1.5-0.671-1.5-1.5s0.672-1.5,1.5-1.5h45c0.828,0,1.5,0.671,1.5,1.5S73.328,89,72.5,89z"/>
			</g>
			<g>
				<path d="M50.172,34h-0.344c-1.835,0-3.328-1.493-3.328-3.328v-0.344c0-1.835,1.493-3.328,3.328-3.328h0.344
					c1.835,0,3.328,1.493,3.328,3.328v0.344C53.5,32.507,52.007,34,50.172,34z M49.828,30c-0.181,0-0.328,0.147-0.328,0.328v0.344
					c0,0.181,0.147,0.328,0.328,0.328h0.344c0.181,0,0.328-0.147,0.328-0.328v-0.344c0-0.181-0.148-0.328-0.328-0.328H49.828z"/>
			</g>
			<g>
				<path d="M37.172,34h-0.344c-1.835,0-3.328-1.493-3.328-3.328v-0.344c0-1.835,1.493-3.328,3.328-3.328h0.344
					c1.835,0,3.328,1.493,3.328,3.328v0.344C40.5,32.507,39.007,34,37.172,34z M36.828,30c-0.181,0-0.328,0.147-0.328,0.328v0.344
					c0,0.181,0.147,0.328,0.328,0.328h0.344c0.181,0,0.328-0.147,0.328-0.328v-0.344c0-0.181-0.148-0.328-0.328-0.328H36.828z"/>
			</g>
			<g>
				<path d="M63.172,34h-0.344c-1.835,0-3.328-1.493-3.328-3.328v-0.344c0-1.835,1.493-3.328,3.328-3.328h0.344
					c1.835,0,3.328,1.493,3.328,3.328v0.344C66.5,32.507,65.007,34,63.172,34z M62.828,30c-0.181,0-0.328,0.147-0.328,0.328v0.344
					c0,0.181,0.147,0.328,0.328,0.328h0.344c0.181,0,0.328-0.147,0.328-0.328v-0.344c0-0.181-0.148-0.328-0.328-0.328H62.828z"/>
			</g>
			<g>
				<path d="M50.172,47h-0.344c-1.835,0-3.328-1.493-3.328-3.328v-0.344c0-1.835,1.493-3.328,3.328-3.328h0.344
					c1.835,0,3.328,1.493,3.328,3.328v0.344C53.5,45.507,52.007,47,50.172,47z M49.828,43c-0.181,0-0.328,0.147-0.328,0.328v0.344
					c0,0.181,0.147,0.328,0.328,0.328h0.344c0.181,0,0.328-0.147,0.328-0.328v-0.344c0-0.181-0.148-0.328-0.328-0.328H49.828z"/>
			</g>
			<g>
				<path d="M37.172,47h-0.344c-1.835,0-3.328-1.493-3.328-3.328v-0.344c0-1.835,1.493-3.328,3.328-3.328h0.344
					c1.835,0,3.328,1.493,3.328,3.328v0.344C40.5,45.507,39.007,47,37.172,47z M36.828,43c-0.181,0-0.328,0.147-0.328,0.328v0.344
					c0,0.181,0.147,0.328,0.328,0.328h0.344c0.181,0,0.328-0.147,0.328-0.328v-0.344c0-0.181-0.148-0.328-0.328-0.328H36.828z"/>
			</g>
			<g>
				<path d="M63.172,47h-0.344c-1.835,0-3.328-1.493-3.328-3.328v-0.344c0-1.835,1.493-3.328,3.328-3.328h0.344
					c1.835,0,3.328,1.493,3.328,3.328v0.344C66.5,45.507,65.007,47,63.172,47z M62.828,43c-0.181,0-0.328,0.147-0.328,0.328v0.344
					c0,0.181,0.147,0.328,0.328,0.328h0.344c0.181,0,0.328-0.147,0.328-0.328v-0.344c0-0.181-0.148-0.328-0.328-0.328H62.828z"/>
			</g>
			<g>
				<path d="M50.172,60h-0.344c-1.835,0-3.328-1.493-3.328-3.328v-0.344c0-1.835,1.493-3.328,3.328-3.328h0.344
					c1.835,0,3.328,1.493,3.328,3.328v0.344C53.5,58.507,52.007,60,50.172,60z M49.828,56c-0.181,0-0.328,0.147-0.328,0.328v0.344
					c0,0.181,0.147,0.328,0.328,0.328h0.344c0.181,0,0.328-0.147,0.328-0.328v-0.344c0-0.181-0.148-0.328-0.328-0.328H49.828z"/>
			</g>
			<g>
				<path d="M37.172,60h-0.344c-1.835,0-3.328-1.493-3.328-3.328v-0.344c0-1.835,1.493-3.328,3.328-3.328h0.344
					c1.835,0,3.328,1.493,3.328,3.328v0.344C40.5,58.507,39.007,60,37.172,60z M36.828,56c-0.181,0-0.328,0.147-0.328,0.328v0.344
					c0,0.181,0.147,0.328,0.328,0.328h0.344c0.181,0,0.328-0.147,0.328-0.328v-0.344c0-0.181-0.148-0.328-0.328-0.328H36.828z"/>
			</g>
			<g>
				<path d="M63.172,60h-0.344c-1.835,0-3.328-1.493-3.328-3.328v-0.344c0-1.835,1.493-3.328,3.328-3.328h0.344
					c1.835,0,3.328,1.493,3.328,3.328v0.344C66.5,58.507,65.007,60,63.172,60z M62.828,56c-0.181,0-0.328,0.147-0.328,0.328v0.344
					c0,0.181,0.147,0.328,0.328,0.328h0.344c0.181,0,0.328-0.147,0.328-0.328v-0.344c0-0.181-0.148-0.328-0.328-0.328H62.828z"/>
			</g>
		</g>
		<g>
			<path d="M82.5,58h-7c-0.828,0-1.5-0.671-1.5-1.5s0.672-1.5,1.5-1.5h7c0.828,0,1.5,0.671,1.5,1.5S83.328,58,82.5,58z"/>
		</g>
		<g>
			<path d="M23.5,58h-6c-0.828,0-1.5-0.671-1.5-1.5s0.672-1.5,1.5-1.5h6c0.828,0,1.5,0.671,1.5,1.5S24.328,58,23.5,58z"/>
		</g>
	</g>
</g>
<script  type="text/javascript">
    <![CDATA[
         var c=window.location.search.split('color=')[1]; c=parseInt(c,16); if(!isNaN(c)){c=c.toString(16);var p=document.getElementsByTagName('path');for(var i=0,l=p.length;i<l;i++){var s=p[i].style;s.fill='#'+c;} var p2=document.getElementsByTagName('polygon');for(var i=0,l=p2.length;i<l;i++){var s=p2[i].style;s.fill='#'+c;} var p3=document.getElementsByTagName('circle');for(var i=0,l=p3.length;i<l;i++){var s=p3[i].style;s.fill='#'+c;} }
        ]]>
</script>
</svg>
